# AST/ASF file generated using VICON BodyLanguage
# -----------------------------------------------
:version 1.10
:name VICON
:units
  mass 1.0
  length 0.45
  angle deg
:documentation
   .ast/.asf automatically generated from VICON data using
   VICON BodyBuilder and BodyLanguage model FoxedUp or BRILLIANT.MOD
:root
   order TX TY TZ RX RY RZ
   axis XYZ
   position 0 0 0  
   orientation 0 0 0 
:bonedata
  begin
     id 1 
     name lhipjoint
     direction 0.606768 -0.715223 0.346827 
     length 2.41543 
     axis 0 0 0  XYZ
  end
  begin
     id 2 
     name lfemur
     direction 0.34202 -0.939693 0  
     length 7.2778  
     axis 0 0 20  XYZ
    dof rx ry rz
    limits (-160.0 20.0)
           (-70.0 70.0)
           (-60.0 70.0)
  end
  begin
     id 3 
     name ltibia
     direction 0.34202 -0.939693 0   
     length 7.61811   
     axis 0 0 20   XYZ
    dof rx
    limits (-10.0 170.0)
  end
  begin
     id 4 
     name lfoot
     direction 0.0823924 -0.226371 0.97055   
     length 2.33618   
     axis -90 7.62852e-016 20   XYZ
    dof rx rz
    limits (-45.0 90.0)
           (-70.0 20.0)
  end
  begin
     id 5 
     name ltoes
     direction 1.53554e-011 -4.21934e-011 1   
     length 1.17015   
     axis -90 7.62852e-016 20   XYZ
    dof rx
    limits (-90.0 20.0)
  end
  begin
     id 6 
     name rhipjoint
     direction -0.6077 -0.714582 0.346516   
     length 2.4176  
     axis 0 0 0  XYZ 
  end
  begin
     id 7 
     name rfemur
     direction -0.34202 -0.939693 0   
     length 7.28127   
     axis 0 0 -20   XYZ
    dof rx ry rz
    limits (-160.0 20.0)
           (-70.0 70.0)
           (-70.0 60.0)
  end
  begin
     id 8 
     name rtibia
     direction -0.34202 -0.939693 0   
     length 7.77648   
     axis 0 0 -20   XYZ
    dof rx
    limits (-10.0 170.0)
 end
 begin
     id 9 
     name rfoot
     direction -0.0809463 -0.222398 0.97159   
     length 2.37533  
     axis -90 -7.62852e-016 -20   XYZ
    dof rx rz
    limits (-45.0 90.0)
           (-20.0 70.0)
  end
  begin
     id 10 
     name rtoes
     direction -1.53568e-011 -4.21714e-011 1   
     length 1.18972   
     axis -90 -7.62852e-016 -20   XYZ
    dof rx
    limits (-90.0 20.0)
  end
  begin
     id 11 
     name lowerback
     direction 0.010968 0.991932 -0.126297   
     length 2.21698   
     axis 0 0 0   XYZ
    dof rx ry rz
    limits (-20.0 45.0)
           (-30.0 30.0)
           (-30.0 30.0)
  end
  begin
     id 12 
     name upperback
     direction 0.0167007 0.997503 -0.0686276   
     length 2.22371   
     axis 0 0 0   XYZ
    dof rx ry rz
    limits (-20.0 45.0)
           (-30.0 30.0)
           (-30.0 30.0)
  end
  begin
     id 13 
     name thorax
     direction 0.0111721 0.999885 -0.0102878   
     length 2.25242   
     axis 0 0 0   XYZ
    dof rx ry rz
    limits (-20.0 45.0)
           (-30.0 30.0)
           (-30.0 30.0)
  end
  begin
     id 14 
     name lowerneck
     direction -0.0120265 0.990428 0.137508   
     length 1.57674   
     axis 0 0 0   XYZ
    dof rx ry rz
    limits (-20.0 45.0)
           (-30.0 30.0)
           (-30.0 30.0)
  end
  begin
     id 15 
     name upperneck
     direction 0.0175669 0.998907 0.0433089   
     length 1.5618   
     axis 0 0 0   XYZ
    dof rx ry rz
    limits (-20.0 45.0)
           (-30.0 30.0)
           (-30.0 30.0)
  end
  begin
     id 16
     name head
     direction 0.00754609 0.99997 0.00185367  
     length 1.60579  
     axis 0 0 0   XYZ
    dof rx ry rz
    limits (-20.0 45.0)
           (-30.0 30.0)
           (-30.0 30.0)
  end
  begin
     id 17 
     name lclavicle
     direction 0.885866 0.429166 -0.176231  
     length 3.44967  
     axis 0 0 0   XYZ
    dof ry rz
    limits (-20.0 10.0)
           (0.0 20.0)
  end
  begin
     id 18 
     name lhumerus
     direction 1 -4.48973e-011 -1.90255e-027   
     length 5.20607   
     axis 180 -30 -90   XYZ
    dof rx ry rz
    limits (-60.0 90.0)
           (-90.0 90.0)
           (-90.0 90.0)
  end
  begin
     id 19
     name lradius
     direction 1 -4.48956e-011 9.87925e-027   
     length 3.39961   
     axis 180 -30 -90   XYZ
    dof rx
    limits (-10.0 170.0)
  end
  begin
     id 20
     name lwrist
     direction 1 -4.48985e-011 1.73247e-026   
     length 1.6998   
     axis -9.60847e-015 90 90   XYZ
    dof ry
    limits (-180.0 0.0)
 end
  begin
     id 21 
     name lhand
     direction 1 -4.48798e-011 3.46119e-026   
     length 0.519693   
     axis -2.21073e-014 90 90   XYZ
    dof rx rz
    limits (-90.0 90.0)
           (-45.0 45.0)
  end
  begin
     id 22 
     name lfingers
     direction 1 -4.48938e-011 6.92797e-026   
     length 0.41899   
     axis -4.42155e-014 90 90   XYZ
    dof rx
    limits (0.0 90.0)
  end
  begin
     id 23
     name lthumb
     direction 0.707107 -6.34952e-011 0.707107   
     length 0.601588   
     axis -90 45 6.0103e-014   XYZ
    dof rx rz
    limits (-45.0 45.0)
           (-45.0 45.0)
  end
  begin
     id 24 
     name rclavicle
     direction -0.866736 0.456792 -0.200276   
     length 3.45032  
     axis 0 0 0   XYZ 
    dof ry rz
    limits (-10.0 20.0)
           (-20.0 0.0)
  end
  begin
     id 25 
     name rhumerus
     direction -1 -4.4897e-011 8.65094e-028  
     length 5.32214   
     axis 180 30 90   XYZ
    dof rx ry rz
    limits (-90.0 60.0)
           (-90.0 90.0)
           (-90.0 90.0)
  end
  begin
     id 26 
     name rradius
     direction -1 -4.48987e-011 1.08427e-026   
     length 3.51208   
     axis 180 30 90   XYZ
    dof rx
    limits (-10.0 170.0)
  end
  begin
     id 27 
     name rwrist
     direction -1 -4.48961e-011 1.73222e-026   
     length 1.75604   
     axis -9.60847e-015 -90 -90   XYZ
    dof ry
    limits (-180.0 0.0)
  end
  begin
     id 28
     name rhand
     direction -1 -4.48895e-011 3.46314e-026   
     length 0.586681   
     axis -2.21073e-014 -90 -90   XYZ
    dof rx rz
    limits (-90.0 90.0)
           (-45.0 45.0)
  end
  begin
     id 29
     name rfingers
     direction -1 -4.48968e-011 6.92916e-026   
     length 0.472997   
     axis -4.42155e-014 -90 -90   XYZ
    dof rx
    limits (0.0 90.0)
  end
  begin
     id 30
     name rthumb
     direction -0.707107 -6.34848e-011 0.707107   
     length 0.679133   
     axis -90 -45 -6.0103e-014   XYZ
    dof rx rz
    limits (-45.0 45.0)
           (-45.0 45.0)
  end
:hierarchy
  begin
    root lhipjoint rhipjoint lowerback
    lhipjoint lfemur
    lfemur ltibia
    ltibia lfoot
    lfoot ltoes
    rhipjoint rfemur
    rfemur rtibia
    rtibia rfoot
    rfoot rtoes
    lowerback upperback
    upperback thorax
    thorax lowerneck lclavicle rclavicle
    lowerneck upperneck
    upperneck head
    lclavicle lhumerus
    lhumerus lradius
    lradius lwrist
    lwrist lhand lthumb
    lhand lfingers
    rclavicle rhumerus
    rhumerus rradius
    rradius rwrist
    rwrist rhand rthumb
    rhand rfingers
  end

#!OML:ASF H:\Dans Jumps\Project 1\Capture day 1\Session 1\subject.ASF
:FULLY-SPECIFIED
:DEGREES
17
root 0.552718 17.5185 -14.1991 6.43697 -1.40421 -1.41083
lowerback 0.108394 -0.802117 -0.216295
upperback 4.89732 -1.14186 1.74907
thorax 5.036 -0.620693 1.88178
lowerneck -13.2511 1.02579 -1.78787
upperneck 32.4543 1.90442 0.174708
head 13.032 0.629139 0.660182
rclavicle 8.54774e-015 -2.42517e-014
rhumerus -18.1722 -12.1465 -82.4075
rradius 26.2794
rwrist 31.4486
rhand -17.3292 -26.2214
rfingers 7.12502
rthumb 8.91768 -56.0129
lclavicle 8.54774e-015 -2.42517e-014
lhumerus -16.1663 -3.78922 87.6425
lradius 20.8601
lwrist 1.6673
lhand -24.5302 -3.15551
lfingers 7.12502
lthumb 1.96532 26.8152
rfemur -16.6384 -2.35373 19.2534
rtibia 25.4351
rfoot -13.6139 -4.33668
rtoes 9.0408
lfemur -15.6656 8.44243 -18.7589
ltibia 23.1259
lfoot -11.6969 4.7971
ltoes 4.73226
18
root 0.552895 17.5174 -14.2014 6.44803 -1.42027 -1.41939
lowerback 0.133703 -0.800813 -0.20861
upperback 4.89999 -1.14013 1.74813
thorax 5.02412 -0.619454 1.87689
lowerneck -13.249 1.03 -1.77977
upperneck 32.4438 1.9093 0.170649
head 13.0272 0.631816 0.657787
rclavicle -1.72943e-014 2.18663e-015
rhumerus -18.1677 -12.1589 -82.4049
rradius 26.2762
rwrist 31.4541
rhand -17.3451 -26.1826
rfingers 7.12502
rthumb 8.90238 -55.9748
lclavicle -1.72943e-014 2.18663e-015
lhumerus -16.1793 -3.78501 87.6283
lradius 20.9041
lwrist 1.70916
lhand -24.5179 -3.15187
lfingers 7.12502
lthumb 1.9772 26.8187
rfemur -16.6968 -2.32885 19.2633
rtibia 25.4981
rfoot -13.6135 -4.34919
rtoes 9.01948
lfemur -15.7217 8.44487 -18.7535
ltibia 23.1949
lfoot -11.7039 4.81214
ltoes 4.7083
19
root 0.553107 17.5163 -14.204 6.46249 -1.44094 -1.42754
lowerback 0.158612 -0.798114 -0.199958
upperback 4.90272 -1.13648 1.74538
thorax 5.01239 -0.617179 1.86965
lowerneck -13.2397 1.03403 -1.77615
upperneck 32.4246 1.91286 0.17255
head 13.017 0.634286 0.658153
rclavicle -6.95746e-016 -7.95139e-016
rhumerus -18.1645 -12.1773 -82.4009
rradius 26.2702
rwrist 31.4666
rhand -17.3703 -26.1338
rfingers 7.12502
rthumb 8.87804 -55.9271
lclavicle -6.95746e-016 -7.95139e-016
lhumerus -16.1956 -3.78945 87.6115
lradius 20.9519
lwrist 1.76544
lhand -24.5006 -3.14001
lfingers 7.12502
lthumb 1.99389 26.8304
rfemur -16.7649 -2.29982 19.2726
rtibia 25.5676
rfoot -13.6114 -4.3615
rtoes 8.99866
lfemur -15.7861 8.4501 -18.7497
ltibia 23.2698
lfoot -11.71 4.82792
ltoes 4.68368
20
root 0.553362 17.5152 -14.2071 6.48101 -1.46507 -1.43667
lowerback 0.185019 -0.795493 -0.191307
upperback 4.90492 -1.13294 1.74328
thorax 4.99928 -0.614969 1.8631
lowerneck -13.2297 1.03762 -1.7763
upperneck 32.3993 1.91649 0.175134
head 13.004 0.636485 0.659392
rclavicle -8.05078e-015 1.88845e-014
rhumerus -18.1633 -12.194 -82.3936
rradius 26.2646
rwrist 31.4839
rhand -17.4016 -26.0714
rfingers 7.12502
rthumb 8.84781 -55.8659
lclavicle -8.05078e-015 1.88845e-014
lhumerus -16.2143 -3.79675 87.5933
lradius 21.0021
lwrist 1.83376
lhand -24.4828 -3.11361
lfingers 7.12502
lthumb 2.01111 26.8567
rfemur -16.8441 -2.2678 19.2832
rtibia 25.6449
rfoot -13.608 -4.37374
rtoes 8.97376
lfemur -15.86 8.45631 -18.7456
ltibia 23.3514
lfoot -11.715 4.84349
ltoes 4.66234
21
root 0.553675 17.514 -14.2109 6.50472 -1.49339 -1.44392
lowerback 0.213235 -0.792297 -0.18624
upperback 4.90718 -1.12854 1.7417
thorax 4.98526 -0.612499 1.85916
lowerneck -13.2224 1.04164 -1.77889
upperneck 32.3685 1.92136 0.177852
head 12.9893 0.639008 0.661268
rclavicle -3.97569e-015 2.38542e-015
rhumerus -18.1629 -12.2043 -82.3827
rradius 26.2634
rwrist 31.4995
rhand -17.4344 -25.9978
rfingers 7.12502
rthumb 8.81613 -55.7936
lclavicle -3.97569e-015 2.38542e-015
lhumerus -16.2316 -3.8062 87.5744
lradius 21.0521
lwrist 1.9084
lhand -24.4672 -3.07953
lfingers 7.12502
lthumb 2.02618 26.8906
rfemur -16.9368 -2.2329 19.2918
rtibia 25.7313
rfoot -13.6041 -4.38525
rtoes 8.95514
lfemur -15.9456 8.46133 -18.7447
ltibia 23.4412
lfoot -11.7189 4.86218
ltoes 4.65365
22
root 0.553999 17.5127 -14.2152 6.53282 -1.5228 -1.44966
lowerback 0.244663 -0.788943 -0.183878
upperback 4.90891 -1.12384 1.7403
thorax 4.96891 -0.609984 1.85696
lowerneck -13.2199 1.04515 -1.77939
upperneck 32.3344 1.92636 0.176392
head 12.9743 0.641324 0.661194
rclavicle 5.96354e-016 -2.98177e-015
rhumerus -18.1672 -12.2104 -82.3675
rradius 26.2692
rwrist 31.5122
rhand -17.4662 -25.9127
rfingers 7.12502
rthumb 8.78548 -55.7099
lclavicle 5.96354e-016 -2.98177e-015
lhumerus -16.2484 -3.81613 87.5541
lradius 21.1008
lwrist 1.98623
lhand -24.4529 -3.0342
lfingers 7.12502
lthumb 2.03992 26.9358
rfemur -17.0424 -2.19792 19.2991
rtibia 25.8278
rfoot -13.6002 -4.39617
rtoes 8.94029
lfemur -16.0437 8.46477 -18.7462
ltibia 23.5411
lfoot -11.7213 4.88209
ltoes 4.64461
